<svg width="934" height="934" viewBox="0 0 934 934" fill="none" xmlns="http://www.w3.org/2000/svg">
<path d="M0.266667 236.933L0.666667 473.867L22 484.933C132.267 542.133 275.067 573.2 413.333 570.267C518.8 568 599.2 549.2 681.333 508C689.733 503.733 715.867 489.6 739.333 476.667C804.667 440.667 832.533 427.867 866.667 418.133C886.933 412.4 901.733 409.6 919.333 408.4L932.667 407.333L933.067 203.6L933.333 -9.48558e-05H466.667H0L0.266667 236.933Z" fill="#F40001"/>
<path d="M848.667 522.667C810 524.933 772.133 532.667 726.267 547.467C680.8 562.267 641.067 579.067 569.333 614C544.8 625.867 518.133 638.4 510 641.733C452.933 665.333 399.733 679.067 338 686.267C313.333 689.067 241.6 689.467 216 686.933C150 680.267 86.2667 667.867 17.7333 648.533C8.66667 646.133 1.06667 644 0.666667 644C0.266667 644 0 709.067 0 788.667V933.333H466.667H933.333V730.133V526.933L922.933 525.467C913.067 524 874.267 521.2 868.667 521.6C867.2 521.6 858.267 522.133 848.667 522.667Z" fill="#F40001"/>
</svg>
